<svg xmlns="http://www.w3.org/2000/svg" width="48" height="48" viewBox="0 0 48 48">
  <g fill="none" fill-rule="evenodd">
    <path fill="#FFF" fill-rule="nonzero" d="M3 3L9.5 3C10.3284271 3 11 2.32842712 11 1.5 11 .671572875 10.3284271 0 9.5 0L0 0 0 9.5C0 10.3284271.671572875 11 1.5 11 2.32842712 11 3 10.3284271 3 9.5L3 3zM45 3L45 9.5C45 10.3284271 45.6715729 11 46.5 11 47.3284271 11 48 10.3284271 48 9.5L48 0 38.5 0C37.6715729-1.52179594e-16 37 .671572875 37 1.5 37 2.32842712 37.6715729 3 38.5 3L45 3zM26.5 0L21.5 0C20.6715729-2.04386415e-17 20 .671572875 20 1.5 20 2.32842712 20.6715729 3 21.5 3L26.5 3C27.3284271 3 28 2.32842712 28 1.5 28 .671572875 27.3284271 2.04386415e-17 26.5 0z"/>
    <path fill="#FFF" fill-rule="nonzero" d="M4,22.5 L-1,22.5 C-1.82842712,22.5 -2.5,23.1715729 -2.5,24 C-2.5,24.8284271 -1.82842712,25.5 -1,25.5 L4,25.5 C4.82842712,25.5 5.5,24.8284271 5.5,24 C5.5,23.1715729 4.82842712,22.5 4,22.5 Z" transform="rotate(90 1.5 24)"/>
    <path fill="#FFF" fill-rule="nonzero" d="M49,22.5 L44,22.5 C43.1715729,22.5 42.5,23.1715729 42.5,24 C42.5,24.8284271 43.1715729,25.5 44,25.5 L49,25.5 C49.8284271,25.5 50.5,24.8284271 50.5,24 C50.5,23.1715729 49.8284271,22.5 49,22.5 Z" transform="rotate(90 46.5 24)"/>
    <path fill="#FFF" fill-rule="nonzero" d="M45 45L38.5 45C37.6715729 45 37 45.6715729 37 46.5 37 47.3284271 37.6715729 48 38.5 48L48 48 48 38.5C48 37.6715729 47.3284271 37 46.5 37 45.6715729 37 45 37.6715729 45 38.5L45 45zM3 45L3 38.5C3 37.6715729 2.32842712 37 1.5 37 .671572875 37 1.77635684e-15 37.6715729 1.77635684e-15 38.5L0 48 9.5 48C10.3284271 48 11 47.3284271 11 46.5 11 45.6715729 10.3284271 45 9.5 45L3 45zM21.5 48L26.5 48C27.3284271 48 28 47.3284271 28 46.5 28 45.6715729 27.3284271 45 26.5 45L21.5 45C20.6715729 45 20 45.6715729 20 46.5 20 47.3284271 20.6715729 48 21.5 48z"/>
  </g>
</svg>
