<svg xmlns="http://www.w3.org/2000/svg" width="271" height="290" viewBox="0 0 271 290">
  <g fill="#1D1D1B" fill-rule="evenodd">
    <path d="M149.93,99.9451 C149.959,99.9781 149.994,100.0411 150.018,100.0381 C150.099,100.0251 150.175,99.9881 150.253,99.9611 C150.224,99.9281 150.189,99.8641 150.164,99.8681 C150.084,99.8811 150.007,99.9181 149.93,99.9451 Z M141.583,93.6001 C141.691,93.4811 141.804,93.3921 141.861,93.2751 C141.885,93.2241 141.795,93.1171 141.757,93.0351 C141.656,93.1221 141.532,93.1951 141.462,93.3021 C141.434,93.3451 141.525,93.4661 141.583,93.6001 Z M146.643,99.0121 C147.307,99.0371 147.307,99.0371 147.505,98.1751 C147.166,98.5051 146.928,98.7361 146.643,99.0121 Z M107.512,99.1261 C107.242,99.0371 107.097,98.9361 106.997,98.9691 C106.785,99.0411 106.476,99.1071 106.571,99.4301 C106.594,99.5081 106.897,99.5651 107.042,99.5261 C107.189,99.4871 107.3,99.3151 107.512,99.1261 Z M126.943,54.6701 C125.966,54.5401 125.967,54.5481 125.11,55.1511 C125.886,55.2621 126.443,55.2211 126.943,54.6701 Z M112.555,84.4491 C110.512,83.9421 109.343,84.2341 108.59,85.3371 C109.844,85.5221 110.657,85.3511 112.555,84.4491 Z M132.246,99.5371 C129.397,99.7501 126.831,100.3411 123.911,100.5371 C124.352,100.6731 124.487,100.7531 124.62,100.7491 C125.341,100.7291 126.066,100.7351 126.779,100.6461 C128.464,100.4371 130.142,100.1821 131.822,99.9361 C131.898,99.9251 131.96,99.8121 132.246,99.5371 Z M136.348,110.3581 C136.693,110.3771 137.04,110.4271 137.383,110.4091 C137.846,110.3851 138.311,110.3391 138.765,110.2511 C140.742,109.8651 142.715,109.4651 144.687,109.0521 C144.791,109.0301 144.865,108.8531 145.016,108.6711 C144.723,108.6371 144.52,108.5731 144.327,108.5971 C141.622,108.9311 139.001,109.6651 136.348,110.3581 Z M111.906,72.9681 C111.828,73.0061 111.75,73.0441 111.671,73.0821 C111.562,72.9901 111.455,72.8951 111.343,72.8061 C111.196,72.6901 111.134,72.4331 110.866,72.5141 C110.957,73.6211 110.957,73.6211 111.432,74.4531 C112.164,74.0871 112.389,74.0571 113.53,74.1521 C114.052,74.1951 114.494,74.0271 115.026,73.6411 C114.747,73.4481 114.604,73.3261 114.442,73.2391 C113.631,72.8001 112.816,72.3671 111.997,71.9441 C111.933,71.9111 111.821,71.9681 111.678,71.9931 C111.754,72.3211 111.83,72.6451 111.906,72.9681 Z M106.59,97.8671 C107.242,97.9751 107.749,97.9341 108.23,97.7121 C109.546,97.1041 110.858,96.4871 112.167,95.8611 C112.355,95.7711 112.498,95.6111 112.244,95.2811 C111.87,95.2811 111.389,95.3771 110.969,95.2591 C110.305,95.0721 109.755,95.2361 109.179,95.5151 C108.809,95.6951 108.411,95.8271 108.014,95.9411 C107.104,96.2001 106.621,96.7741 106.59,97.8671 Z M133.061,107.3201 C133.061,107.5941 133.025,107.7131 133.066,107.7911 C133.429,108.4891 134.018,108.8361 134.794,108.9391 C136.303,109.1381 137.79,108.9071 139.281,108.7521 C139.456,108.7341 139.614,108.5491 139.847,108.3971 C139.662,108.2051 139.549,107.9871 139.387,107.9401 C138.847,107.7811 138.291,107.6001 137.737,107.5821 C136.392,107.5381 135.046,107.5781 133.72,107.2771 C133.532,107.2341 133.32,107.2991 133.061,107.3201 Z M155.133,100.8731 C154.82,100.7931 154.476,100.7251 154.146,100.6171 C153.316,100.3461 152.658,100.5901 152.035,101.1761 C151.553,101.6311 150.975,101.9841 150.448,102.3921 C150.246,102.5481 150.017,102.7031 149.899,102.9141 C149.841,103.0171 149.971,103.2811 150.087,103.4071 C150.172,103.4991 150.382,103.5321 150.521,103.5081 C151.895,103.2621 153.23,102.8731 154.462,102.2161 C154.911,101.9761 155.277,101.5731 155.133,100.8731 Z M143.146,104.7241 C143.341,105.0471 143.432,105.1661 143.489,105.2991 C143.569,105.4861 143.584,105.7101 143.697,105.8711 C144.017,106.3331 144.784,106.4641 145.034,106.0651 C145.525,105.2831 145.957,104.4631 146.364,103.6341 C146.491,103.3741 146.268,103.1541 145.995,103.0591 C145.666,102.9441 145.4,103.0541 145.159,103.2891 C144.926,103.5151 144.895,103.9621 144.481,103.9941 C144.379,103.8711 144.269,103.7991 144.261,103.7161 C144.207,103.1781 143.97,102.8581 143.387,102.8391 C142.859,102.8211 142.491,103.0391 142.285,103.5161 C142.022,104.1321 141.755,104.7481 141.535,105.3791 C141.484,105.5281 141.573,105.8671 141.667,105.8981 C141.881,105.9661 142.23,105.9901 142.361,105.8631 C142.644,105.5891 142.826,105.2081 143.146,104.7241 Z M117.413,89.4951 C116.903,89.4951 116.643,89.4621 116.396,89.5001 C114.858,89.7391 113.321,89.9791 111.79,90.2541 C111.234,90.3541 110.679,90.5121 110.152,90.7161 C109.141,91.1081 108.295,91.8611 107.203,92.0851 C107.157,92.0941 107.116,92.1401 107.076,92.1721 C106.809,92.3861 106.709,92.6711 106.76,93.0011 C106.819,93.3841 107.107,93.4701 107.44,93.4891 C108.114,93.5281 108.787,93.6011 109.461,93.6061 C110.235,93.6111 111.016,93.6121 111.781,93.5121 C112.477,93.4211 113.138,92.9861 113.849,93.5351 C113.993,93.6471 114.355,93.5261 114.598,93.4531 C115.499,93.1841 116.345,92.7921 117.086,92.2041 C117.221,92.0971 117.32,91.9451 117.585,91.6461 C116.765,91.6741 116.296,92.0211 115.774,92.1971 C115.205,92.3911 114.718,92.8451 113.88,92.8101 C114.971,91.6031 116.454,91.0371 117.413,89.4951 Z M124.863,65.2211 C125.232,65.0341 125.547,64.9591 125.736,64.7631 C126.769,63.6911 128.005,62.8211 128.751,61.4611 C129.167,60.7031 129.787,60.0391 130.39,59.4051 C131.596,58.1411 131.522,58.1921 130.743,56.7681 C130.544,56.4051 130.351,56.0371 130.122,55.6951 C129.991,55.4991 129.79,55.3501 129.541,55.1001 C129.236,55.5151 129.004,55.8411 128.762,56.1571 C128.164,56.9361 127.586,57.7301 126.954,58.4791 C126.489,59.0311 125.966,59.5371 125.442,60.0361 C124.994,60.4621 124.85,60.9551 124.86,61.5641 C124.876,62.5441 124.809,63.5251 124.787,64.5061 C124.783,64.6931 124.825,64.8821 124.863,65.2211 Z M142.264,96.4621 C141.492,97.3171 140.533,97.8561 139.69,98.5371 C138.27,99.6841 136.805,100.7411 134.933,100.7711 C134.681,101.2371 134.86,101.5361 135.062,101.8541 C135.748,102.9341 135.832,102.9861 137.071,102.7301 C137.676,102.6041 138.269,102.4271 138.873,102.3031 C139.159,102.2441 139.388,102.3861 139.444,102.6861 C139.614,103.6131 139.091,104.2841 138.525,104.8911 C138.157,105.2861 137.66,105.0811 137.209,104.9411 C137.026,104.8841 136.828,104.8781 136.637,104.8481 C137.342,105.4021 138.068,105.8461 139.057,105.6821 C139.268,105.2801 139.493,104.8801 139.695,104.4671 C140.286,103.2581 140.841,102.0301 141.462,100.8371 C141.863,100.0701 142.174,99.1951 143.144,98.9051 C143.234,98.8791 143.301,98.7751 143.375,98.7011 C143.883,98.1951 143.981,97.8321 143.609,97.1781 C143.229,96.5091 142.755,95.8941 142.312,95.2631 C142.286,95.2271 142.163,95.2581 142.013,95.2581 C142.091,95.6331 142.162,95.9751 142.264,96.4621 Z M62.284,214.2911 C62.388,214.2911 62.492,214.2991 62.595,214.2901 C65.787,213.9581 68.723,212.8221 71.549,211.3761 C72.34,210.9711 72.913,210.2801 73.331,209.4741 C73.68,208.8011 73.647,208.1761 73.161,207.5971 C72.404,206.6951 71.524,206.0641 70.262,206.0171 C69.079,205.9721 67.901,205.7851 66.723,205.6411 C64.98,205.4301 63.242,205.1661 61.496,204.9931 C59.492,204.7951 57.708,206.6911 57.885,208.2291 C58.009,209.3061 58.162,210.3931 58.456,211.4321 C58.929,213.1021 60.636,214.3141 62.284,214.2911 Z M121.56,84.2691 C121.423,84.7681 121.294,85.2381 121.173,85.6791 C121.719,86.0931 121.982,85.1501 122.534,85.5721 C121.927,87.0021 121.015,88.3391 120.731,89.9701 C121.047,90.0571 121.318,90.1311 121.72,90.2411 C121.213,90.9341 120.7,91.4991 120.128,92.0191 C119.285,92.7871 118.466,93.5841 117.595,94.3201 C117.209,94.6451 116.75,94.9321 116.275,95.0951 C115.234,95.4531 114.262,95.9261 113.376,96.5701 C112.455,97.2401 111.571,97.9631 110.641,98.6221 C109.052,99.7481 107.83,101.2201 106.63,102.7251 C106.209,103.2531 106.067,103.7961 106.148,104.4541 C106.251,105.2781 106.277,106.1101 106.362,106.9351 C106.385,107.1501 106.282,107.4751 106.735,107.5401 C107.572,105.9921 108.749,104.6761 110.009,103.4491 C111.675,101.8261 113.42,100.2841 115.122,98.6981 C116.373,97.5331 117.603,96.3451 118.856,95.1821 C119.882,94.2311 120.891,93.2561 121.981,92.3821 C122.597,91.8871 122.961,91.3831 122.974,90.5721 C122.994,89.3501 123.606,88.3721 124.392,87.4661 C125.047,88.2181 125.085,88.4051 124.631,88.9201 C124.466,89.1071 124.188,89.2031 124.257,89.5621 C124.449,90.0471 124.77,90.3901 125.368,90.4591 C125.716,90.4981 126.075,90.6041 126.385,90.7641 C127.128,91.1501 127.744,90.9551 128.442,90.4371 C128.051,89.8401 127.715,89.2651 127.319,88.7371 C126.413,87.5281 125.968,86.2241 126.079,84.6771 C126.167,83.4431 126.028,82.1911 125.98,80.9461 C125.976,80.8601 125.886,80.7771 125.836,80.6921 C125.642,80.7191 125.449,80.7471 125.268,80.7731 C124.868,80.0741 125.101,79.3541 125.166,78.5601 C124.396,78.6571 123.935,79.0561 123.491,79.4671 C123.034,79.8911 122.594,80.3321 122.155,80.7741 C121.66,81.2721 121.064,81.6121 120.373,81.6341 C118.843,81.6821 117.611,82.4441 116.372,83.2011 C116.189,83.3141 116.082,83.5521 115.839,83.8591 C116.383,84.0071 116.774,84.2041 117.161,84.1961 C117.718,84.1861 117.874,84.7671 118.358,84.8661 C119.376,84.6481 120.322,83.9181 121.56,84.2691 Z M171.56,44.2441 C171.265,44.1711 171.08,44.0901 170.896,44.0871 C170.588,44.0821 170.277,44.1651 169.972,44.1441 C169.579,44.1161 169.292,43.7271 169.392,43.3731 C169.62,42.5621 169.951,41.7891 170.661,41.2851 C171.289,40.8401 171.923,40.3451 172.797,40.5601 C172.972,40.6031 173.177,40.5231 173.37,40.4991 C173.309,39.5281 172.319,39.7111 171.886,39.1531 C171.838,38.8591 171.783,38.5161 171.737,38.2341 C172.247,37.7241 173.018,37.8391 173.409,37.1811 C172.596,36.9371 171.945,37.2131 171.377,37.6561 C170.643,38.2311 169.882,38.8051 169.276,39.5041 C168.294,40.6351 167.043,41.1831 165.638,41.4221 C163.796,41.7351 161.938,41.9501 160.09,42.2361 C158.707,42.4501 157.328,42.6961 155.951,42.9511 C154.219,43.2711 152.493,43.6291 150.759,43.9431 C149.942,44.0911 149.106,44.1331 148.292,44.2931 C145.561,44.8301 143.043,45.8821 140.762,47.4871 C140.507,47.6661 140.231,47.8201 139.996,48.0231 C139.254,48.6631 139.103,49.3921 139.56,50.2371 C139.781,50.6471 140.071,51.0191 140.33,51.4081 C141.092,52.5481 142.16,52.8461 143.459,52.5891 C144.243,52.4341 144.921,52.0671 145.591,51.6681 C149.303,49.4611 153.202,47.6491 157.224,46.0861 C158.822,45.4651 160.435,45.3241 162.113,45.6751 C162.767,45.8111 163.449,45.8621 164.118,45.8711 C166.21,45.8981 168.225,45.2931 170.287,45.0631 C170.716,45.0151 171.238,44.9601 171.56,44.2441 Z M152.403,52.6981 C152.32,52.9001 152.203,53.0811 152.169,53.2781 C152.055,53.9381 151.992,54.6091 151.867,55.2671 C151.528,57.0631 151.468,58.8631 151.628,60.6861 C151.909,63.8851 152.19,67.0901 151.763,70.3001 C151.478,72.4501 151.433,74.6261 150.994,76.7601 C150.725,78.0741 150.598,79.4201 150.292,80.7241 C150.152,81.3281 150.243,81.8711 150.421,82.3841 C150.864,83.6641 151.916,84.3901 153.108,84.3421 C154.235,84.2971 155.268,83.9991 156.154,83.3241 C157.367,82.4011 158.092,81.2471 157.998,79.6041 C157.91,78.0561 158.036,76.4961 158.062,74.9421 C158.068,74.6311 158.047,74.3201 158.04,74.0101 C158.006,72.6041 157.645,71.2531 157.414,69.8781 C157.139,68.2311 156.636,66.6601 156.239,65.0541 C155.916,63.7511 155.586,62.4421 155.398,61.1151 C155.098,59.0181 154.907,56.9051 154.685,54.7971 C154.61,54.0811 154.505,53.3761 154.305,52.7041 C153.622,52.4181 153.028,52.5261 152.403,52.6981 Z M123.25,94.7921 C120.781,97.0521 118.235,99.1851 115.573,101.1841 C112.75,103.3041 110.448,105.8731 108.994,109.1201 C109.127,109.5361 109.289,109.9191 109.362,110.3191 C109.4,110.5311 109.285,110.7721 109.239,111.0021 C108.631,110.8731 108.119,110.6451 107.635,110.6921 C107.092,110.7461 106.831,110.4101 106.441,110.1401 C105.818,111.7941 105.763,113.5141 105.505,115.1941 C105.379,116.0131 105.339,116.8471 105.283,117.6751 C105.267,117.9121 105.206,118.2061 105.611,118.3301 C105.875,118.1481 106.179,117.9561 106.463,117.7391 C107.991,116.5711 109.516,115.3991 111.036,114.2221 C111.364,113.9691 111.675,113.6951 111.977,113.4131 C112.035,113.3591 112.018,113.2241 112.043,113.0811 C111.756,112.7631 111.451,112.4251 111.187,112.1341 C111.178,111.2871 111.444,110.6271 111.861,110.0091 C112.18,109.5361 112.486,109.0511 112.771,108.5571 C114.088,106.2671 115.85,104.3961 117.983,102.8421 C119.787,101.5281 121.537,100.1411 123.316,98.7921 C123.551,98.6141 123.814,98.4741 124.043,98.3301 C124.578,98.8471 123.723,99.2041 124.039,99.7291 C124.473,99.5011 124.932,99.3681 125.451,99.5171 C125.791,99.6141 126.175,99.6121 126.534,99.5831 C127.671,99.4891 128.806,99.3621 129.942,99.2471 C131.233,99.1161 132.524,98.9881 133.813,98.8461 C134.007,98.8241 134.194,98.7321 134.45,98.6511 C134.512,97.7471 134.581,96.8761 134.628,96.0031 C134.662,95.3811 134.722,94.7531 134.673,94.1351 C134.429,91.0311 134.251,87.9201 133.622,84.8571 C133.445,83.9961 133.388,83.1101 133.255,82.2381 C133.23,82.0731 133.108,81.9231 132.951,81.6031 C132.572,82.1921 132.341,82.6591 132.011,83.0411 C130.601,84.6721 129.836,86.5271 129.724,88.7001 C129.649,90.1531 128.743,91.0191 127.337,91.4241 C126.494,91.6661 125.678,92.0161 124.87,92.3641 C124.006,92.7371 123.421,93.3571 123.347,94.3551 C123.336,94.5071 123.281,94.6561 123.25,94.7921 Z M70.515,194.7491 C71.178,194.5741 72.101,194.4021 72.972,194.0861 C74.776,193.4301 76.56,192.7211 78.332,191.9871 C79.192,191.6311 80.011,191.1731 80.841,190.7481 C82.596,189.8491 84.351,188.9531 86.097,188.0391 C87.751,187.1731 89.406,186.3061 91.038,185.4011 C92.446,184.6221 93.811,183.7681 95.216,182.9841 C96.627,182.1961 97.97,181.3071 99.18,180.2431 C100.892,178.7351 102.59,177.2091 104.226,175.6201 C105.569,174.3151 106.965,173.0851 108.436,171.9291 C109.29,171.2581 110.121,170.5461 110.883,169.7721 C111.307,169.3411 111.624,168.7751 111.887,168.2201 C112.231,167.4961 111.689,166.8281 110.896,167.0121 C110.3,167.1511 109.683,167.3591 109.175,167.6891 C107.348,168.8751 105.535,170.0861 103.771,171.3601 C101.371,173.0941 98.945,174.7761 96.331,176.1811 C95.145,176.8191 93.972,177.5041 92.882,178.2921 C90.016,180.3641 87.034,182.2241 83.895,183.8631 C79.936,185.9301 75.989,187.9991 71.758,189.4701 C71.123,189.6911 70.517,189.9981 69.908,190.2861 C69.187,190.6261 68.625,191.1661 68.149,191.7921 C67.633,192.4711 67.631,192.9751 68.135,193.6301 C68.669,194.3241 69.361,194.7371 70.515,194.7491 Z M126.888,103.0261 C126.226,102.9741 125.663,102.9351 125.102,102.8851 C124.797,102.8581 124.478,102.8621 124.191,102.7711 C122.512,102.2441 121.072,102.5921 119.741,103.7581 C117.73,105.5191 116.184,107.6751 114.533,109.7381 C114.062,110.3261 113.839,111.1161 113.528,111.8251 C113.242,112.4801 113.447,113.0451 113.933,113.5211 C114.192,113.7751 114.486,113.9921 114.748,114.2421 C115.048,114.5291 115.436,114.7851 115.597,115.1401 C116.007,116.0411 116.76,116.5531 117.481,117.1501 C118.886,118.3131 120.462,118.9321 122.259,119.2101 C123.269,119.3671 124.215,119.1961 125.191,119.1591 C125.998,119.1291 126.686,118.8191 127.4,118.4911 C129.492,117.5311 130.767,115.9581 131.189,113.6931 C131.227,113.4891 131.315,113.2971 131.358,113.0941 C131.8,110.9981 131.498,109.0741 129.989,107.4581 C129.46,106.8911 128.88,106.3731 128.326,105.8301 C128.023,105.5331 127.791,105.2161 128.094,104.7411 C128.465,104.8771 128.789,105.0291 129.131,105.1081 C129.368,105.1631 129.65,105.1701 129.81,104.7471 C129.369,104.0641 128.821,103.3891 128.234,102.7491 C127.947,102.4351 127.577,102.4801 127.134,102.8011 C127.013,102.8891 126.911,103.0051 126.888,103.0261 Z M136.772,73.6661 C136.881,73.7121 136.991,73.7581 137.1,73.8031 C137.034,74.1431 137.047,74.5271 136.887,74.8141 C136.409,75.6721 135.865,76.4921 135.344,77.3251 C134.907,78.0251 134.453,78.7161 134.03,79.4241 C133.805,79.7981 133.816,80.1991 133.948,80.6231 C134.579,82.6601 134.912,84.7551 135.138,86.8721 C135.334,88.7281 135.572,90.5801 135.794,92.4341 C135.893,93.2581 136,94.0811 136.1,94.9051 C136.199,95.7281 136.28,96.5531 136.395,97.3741 C136.472,97.9311 136.84,98.1991 137.375,98.1131 C138.427,97.9441 139.351,97.5081 140.13,96.7711 C140.571,96.3551 140.821,95.8731 140.754,95.2511 C140.688,94.6311 140.643,94.0091 140.574,93.3901 C140.5,92.7281 140.632,92.1371 141.183,91.7191 C141.948,91.1411 142.216,90.3541 142.327,89.4331 C142.571,87.4241 142.889,85.4251 143.163,83.4201 C143.404,81.6731 143.742,79.9281 143.826,78.1721 C143.95,75.6331 143.88,73.0841 143.897,70.5391 C143.911,68.4051 143.03,66.6281 141.691,65.0431 C140.822,64.0131 139.647,63.4641 138.387,63.0951 C138.052,62.9971 137.643,62.9661 137.314,63.0611 C135.899,63.4711 134.603,64.0751 133.733,65.3671 C132.368,67.3931 131.052,69.4491 130.005,71.6571 C129.184,73.3891 128.44,75.1611 127.736,76.9451 C127.128,78.4821 127.232,80.1081 127.375,81.7161 C127.428,82.3001 127.635,82.8941 128.266,83.0591 C128.856,83.2131 129.499,83.3091 130.094,83.2341 C130.43,83.1901 130.722,82.7571 131.023,82.4871 C131.177,82.3481 131.287,82.1591 131.449,82.0341 C132.227,81.4301 132.613,80.5971 132.88,79.6831 C132.981,79.3391 133.046,78.9381 133.267,78.6871 C133.751,78.1401 133.873,77.5071 133.95,76.8301 C133.965,76.6941 134.089,76.5701 134.18,76.4111 L135.047,76.4111 C135.926,75.6511 136.065,74.4681 136.772,73.6661 Z M117.216,197.0551 C117.683,197.0551 118.159,197.1131 118.616,197.0461 C121.033,196.6921 123.409,196.1431 125.727,195.3761 C127.932,194.6461 129.831,193.4121 131.503,191.7991 C133.13,190.2311 134.395,188.4061 135.466,186.4351 C136.731,184.1091 137.964,181.7661 139.248,179.4511 C140.446,177.2921 141.117,174.9551 141.661,172.5711 C141.753,172.1711 141.787,171.7441 141.767,171.3341 C141.749,170.9801 141.696,170.5871 141.52,170.2921 C140.792,169.0711 139.79,168.2321 138.28,168.1881 C137.02,168.1511 135.795,168.3021 134.62,168.7901 C132.646,169.6071 130.801,170.6501 129.037,171.8581 C127.154,173.1481 125.237,174.3881 123.314,175.6191 C120.909,177.1561 118.516,178.7161 116.059,180.1671 C113.045,181.9451 110.354,184.1401 107.735,186.4271 C106.962,187.1021 106.349,187.9661 105.702,188.7741 C105.306,189.2681 105.331,189.8281 105.649,190.3781 C106.047,191.0661 106.557,191.6371 107.265,192.0211 C108.05,192.4471 108.708,193.0071 109.271,193.7141 C109.753,194.3201 110.304,194.8891 110.902,195.3811 C111.413,195.8011 111.995,196.2401 112.616,196.4011 C114.116,196.7931 115.642,197.1351 117.216,197.0551 Z M154.674,107.4171 C155.105,107.2641 155.538,107.1231 155.963,106.9561 C156.565,106.7201 157.092,106.3811 157.558,105.7831 C157.122,105.6681 156.857,105.8241 156.601,105.9701 C155.943,106.3431 155.291,106.7291 154.646,107.1241 C154.616,107.1421 154.668,107.2981 154.682,107.3881 C154.645,107.4041 154.607,107.4341 154.57,107.4331 C154.535,107.4321 154.502,107.3981 154.469,107.3791 L154.674,107.4171 Z M101.092,131.4901 C101.414,131.6341 101.756,131.7471 102.055,131.9301 C102.407,132.1451 102.709,132.4411 103.057,132.6651 C103.657,133.0521 104.274,133.4121 104.958,133.8271 C105.258,133.1691 104.716,132.6841 104.811,132.1501 C104.92,131.5331 104.19,131.3711 104.049,130.8711 C105.396,130.5651 106.975,130.9911 107.905,131.9021 C108.127,132.1191 108.3,132.3881 108.531,132.5931 C108.66,132.7091 108.862,132.7421 109.021,132.8081 C109.093,132.6841 109.151,132.6301 109.14,132.5951 C108.97,132.0031 108.79,131.4131 108.607,130.8061 C107.964,130.5801 107.349,130.3641 106.771,130.1611 C106.75,129.7701 107,129.6901 107.167,129.7511 C108.565,130.2631 110.169,130.1261 111.422,131.1001 C111.528,131.1821 111.714,131.1601 111.887,131.1911 C112.589,130.2181 111.536,129.5891 111.386,128.8301 C111.935,128.2501 112.518,128.9731 113.068,128.6721 C112.754,128.2581 112.324,128.1551 111.885,128.1121 C110.819,128.0081 109.905,127.5351 109.003,127.0021 C108.379,126.6331 107.717,126.3301 107.078,125.9851 C106.324,125.5771 105.594,125.6131 104.855,126.0331 C104.542,126.2111 104.2,126.3381 103.888,126.4801 C103.547,126.2301 103.677,126.0371 103.898,125.8511 C104.213,125.5851 104.544,125.3351 104.832,125.0431 C104.91,124.9641 104.908,124.7361 104.854,124.6171 C104.8,124.4961 104.64,124.3551 104.518,124.3461 C104.268,124.3291 104.004,124.3641 103.761,124.4311 C103.211,124.5841 102.674,124.7831 102.123,124.9311 C101.955,124.9761 101.758,124.9151 101.345,124.8871 C102.253,124.0041 103.43,124.0221 104.177,123.2541 C104.177,122.2281 104.166,121.1941 104.18,120.1601 C104.19,119.3821 104.219,118.6041 104.262,117.8261 C104.363,115.9631 104.377,114.0871 104.618,112.2411 C104.814,110.7431 105.06,109.2731 104.768,107.7681 C104.749,107.6711 104.78,107.5591 104.806,107.4601 C105.254,105.8131 105.089,104.1581 104.825,102.5141 C104.589,101.0491 104.929,99.6201 104.99,98.1741 C105.033,97.1391 105.005,96.1011 105.067,95.0681 C105.133,93.9841 105.24,92.9021 105.379,91.8251 C105.506,90.8501 105.733,89.8841 105.466,88.8671 C104.803,88.4671 104.058,88.6281 103.352,88.5831 C101.824,88.4871 100.955,88.0331 99.796,86.6291 C99.944,86.5801 100.086,86.4781 100.19,86.5081 C101.832,86.9891 103.474,87.4721 105.104,87.9921 C105.591,88.1471 106.04,88.4181 106.507,88.6361 C106.739,88.7441 106.964,88.8791 107.206,88.9561 C108.045,89.2221 108.892,89.4621 109.731,89.7251 C110.259,89.8911 110.74,89.8931 111.191,89.5091 C111.743,89.0381 112.329,88.6061 112.878,88.1311 C113.119,87.9221 113.012,87.4341 112.71,87.3611 C111.298,87.0201 109.883,86.6921 108.463,86.3841 C108.092,86.3041 107.729,86.4061 107.508,86.7571 C107.179,87.2821 106.676,87.3481 106.14,87.2701 C105.319,87.1521 104.494,87.0381 103.687,86.8501 C100.879,86.1961 98.273,85.0661 95.873,83.4631 C95.052,82.9151 94.222,82.3811 93.403,81.8311 C92.759,81.3991 92.763,81.3931 91.782,81.3741 C91.581,80.3311 91.348,79.2711 91.178,78.2001 C91.045,77.3621 91.2,76.5501 91.648,75.7291 C92.057,76.8681 91.83,78.1341 92.559,79.1221 C92.94,79.1561 92.94,78.8691 92.991,78.6261 C93.065,78.2741 93.128,77.9201 93.221,77.5741 C93.243,77.4921 93.367,77.4381 93.502,77.3221 C94.366,77.5821 95.116,78.1351 95.895,78.6201 C96.291,78.8661 96.67,79.1521 97.009,79.4721 C98.569,80.9471 100.52,81.6681 102.506,82.2871 C103.989,82.7501 105.51,83.0911 107.015,83.4791 C107.304,83.5531 107.632,83.4221 107.63,83.1671 C107.621,82.3111 108.304,81.9991 108.932,81.5171 C108.609,81.2111 108.391,80.9121 108.099,80.7451 C106.703,79.9471 105.297,79.1771 103.754,78.6691 C102.474,78.2481 101.229,77.7171 99.986,77.1951 C98.878,76.7291 97.895,76.0611 96.975,75.2781 C96.07,74.5081 95.092,73.8221 94.094,73.0601 C93.808,70.3981 94.72,67.2991 96.418,65.3181 C96.545,65.1701 96.708,65.0541 97.029,64.7681 C96.953,66.0461 96.575,67.0591 96.508,68.1041 C96.439,69.1831 96.492,70.2691 96.492,71.4601 C96.742,71.4861 96.986,71.4721 97.205,71.5401 C97.742,71.7061 98.315,71.8281 98.787,72.1121 C100.798,73.3221 102.946,74.1841 105.198,74.8151 C106.251,75.1091 107.282,75.4581 108.11,76.2281 C108.257,76.3651 108.455,76.4461 108.627,76.5511 C109.149,76.4251 109.643,76.3061 110.135,76.1871 C110.494,75.3401 110.469,74.5281 110.272,73.7041 C110.172,73.2861 110.028,72.9061 109.459,72.7311 C109.304,72.7841 109.063,72.8621 108.825,72.9491 C108.402,73.1051 108.009,73.0471 107.638,72.8021 C107.594,72.7741 107.553,72.7411 107.507,72.7171 C105.697,71.7661 105.836,71.7751 105.731,70.0051 C105.584,67.5171 105.391,65.0281 104.803,62.5931 C104.659,61.9931 104.501,61.3991 104.749,60.6531 C104.968,60.7981 105.168,60.8631 105.263,61.0021 C107.18,63.7951 109.994,65.1031 113.177,65.8001 C114.142,66.0121 115.116,66.1491 116.093,65.8251 C116.155,65.8051 116.259,65.9121 116.37,65.9751 C116.273,66.0941 116.201,66.2701 116.081,66.3161 C114.772,66.8091 113.449,66.8481 112.118,66.3881 C111.629,66.2181 111.143,66.0351 110.646,65.8911 C110.465,65.8391 110.255,65.8821 110.068,65.8821 C109.91,66.4431 110.158,66.7791 110.481,67.0291 C111.589,67.8851 112.694,68.7511 113.85,69.5401 C114.704,70.1251 115.634,70.6001 116.534,71.1181 C116.803,71.2731 117.077,71.4241 117.362,71.5471 C118.797,72.1631 119.936,71.8071 120.814,70.4831 C120.929,70.3101 121.022,70.1131 121.168,69.9721 C121.909,69.2531 122.034,68.3271 121.997,67.3811 C121.963,66.4971 121.92,65.6231 122.042,64.7401 C122.09,64.3921 122.066,63.9961 121.945,63.6701 C121.47,62.3861 121.836,61.1831 122.359,60.0611 C123.184,58.2891 123.695,56.4891 123.674,54.5151 C123.662,53.3821 123.888,52.2471 123.98,51.1121 C124.123,49.3411 123.253,47.9741 121.527,47.4371 C120.492,47.1151 119.411,46.8641 118.334,46.7771 C117.243,46.6881 116.319,46.3601 115.502,45.6581 C114.841,45.0911 114.17,44.5351 113.391,43.8801 C113.16,44.9271 113.698,45.6231 114.067,46.2971 C114.428,46.9561 115.025,47.4861 115.52,48.0751 C115.421,48.3401 115.233,48.2891 115.04,48.1971 C114.245,47.8221 113.803,47.1071 113.354,46.4091 C112.989,45.8421 112.687,45.2341 112.314,44.6731 C112.159,44.4401 111.937,44.1581 111.476,44.4241 C111.938,45.9331 112.375,47.4521 114.172,48.4761 C113.643,48.5791 113.455,48.6791 113.311,48.6341 C112.04,48.2411 111.088,47.5561 111.026,46.0681 C111.01,45.6661 110.971,45.6681 110.171,44.9141 C109.738,44.9931 109.248,45.0831 108.765,45.1721 C108.569,45.8781 109.284,46.0141 109.53,46.5451 C108.775,47.4591 108.475,48.6611 107.929,49.7471 C107.496,50.6091 106.88,51.1431 105.892,51.1981 C105.686,51.2101 105.479,51.2491 105.277,51.2951 C104.588,51.4531 104.052,51.2591 103.727,50.6161 C102.548,50.5831 101.72,51.4391 100.585,51.6741 C100.605,52.0041 100.54,52.3321 100.654,52.5791 C101.326,54.0381 101.852,55.5781 102.837,56.8731 C103.427,57.6471 103.586,58.4241 103.192,59.3411 C103.011,59.7611 102.95,60.2431 102.889,60.7041 C102.526,63.4761 101.773,66.1971 101.78,69.0191 C101.781,69.2771 101.749,69.5401 101.69,69.7911 C101.614,70.1161 101.397,70.3411 101.063,70.4101 C100.861,70.4531 100.651,70.4561 100.444,70.4731 C98.581,70.6281 98.446,70.4871 98.684,68.6561 C98.845,67.4201 99.008,66.1841 99.157,64.9461 C99.301,63.7461 99.705,62.6281 100.2,61.5361 C100.35,61.2051 100.513,60.8781 100.631,60.5361 C100.924,59.6901 101.277,58.9081 102.144,58.4751 C102.276,58.4101 102.307,58.1421 102.429,57.8681 C102.079,57.8031 101.8,57.6561 101.605,57.7311 C100.872,58.0131 100.279,57.6891 99.706,57.3511 C97.774,56.2141 95.975,54.8891 94.379,53.3131 C93.38,52.3271 92.836,51.0801 92.745,49.6951 C92.606,47.5701 92.538,45.4401 92.899,43.3221 C93.047,42.4521 93.165,41.5771 93.27,40.7001 C93.521,38.5941 94.307,36.6611 95.411,34.8981 C96.457,33.2261 97.766,31.7291 99.421,30.5931 C100.157,30.0881 100.957,29.7311 101.852,29.6061 C102.469,29.5201 103.084,29.4241 103.697,29.3131 C104.62,29.1451 105.489,28.8621 106.316,28.3761 C107.567,27.6401 108.866,26.9841 110.169,26.3421 C111.786,25.5461 113.313,25.7981 114.664,26.9461 C115.28,27.4681 115.954,27.7841 116.72,27.9811 C117.524,28.1881 118.321,28.4241 119.11,28.6811 C122.579,29.8161 125.341,31.9551 127.607,34.7611 C128.88,36.3391 129.577,38.1711 129.693,40.2031 C129.763,41.4481 129.816,42.6941 129.842,43.9401 C129.854,44.5621 129.819,45.1881 129.751,45.8061 C129.502,48.0671 128.185,49.6131 125.514,50.0171 C125.364,50.0401 125.219,50.0971 125.033,50.1501 C124.609,50.6981 124.484,51.3481 124.508,52.0331 C124.535,52.8101 125.425,53.2911 126.103,52.8881 C126.707,52.5301 127.09,51.9821 127.328,51.3261 C127.467,50.9451 127.616,50.5681 127.77,50.1631 C128.892,50.2411 129.716,50.7831 130.362,51.5301 C132.549,54.0571 133.77,56.9641 133.626,60.3621 C133.611,60.7241 133.572,61.0891 133.501,61.4441 C133.415,61.8681 133.213,62.2001 132.732,62.3181 C132.495,62.3751 132.233,62.5041 132.073,62.6821 C131.173,63.6841 130.141,64.5951 129.605,65.8701 C129.29,66.6201 128.761,67.1531 128.142,67.6491 C126.967,68.5901 125.825,69.5731 124.665,70.5341 C124.086,71.0141 123.664,71.5751 123.576,72.3551 C123.486,73.1691 123.033,73.8011 122.483,74.3721 C122.195,74.6721 121.875,74.9441 121.612,75.2631 C121.127,75.8531 120.49,76.1521 119.78,76.3761 C118.694,76.7181 117.617,77.0961 116.548,77.4881 C116.087,77.6571 115.637,77.7481 115.197,77.5041 C114.666,77.2091 114.19,77.2811 113.765,77.6681 C113.062,78.3061 112.271,78.6961 111.354,79.0051 C110.442,79.3111 109.638,79.9921 109.519,81.1271 C109.493,81.3751 109.432,81.6191 109.373,81.9411 C109.755,81.8951 110.095,81.7771 110.397,81.8401 C110.735,81.9101 111.038,82.1441 111.408,82.3321 C111.635,82.1771 111.882,82.0711 112.04,81.8881 C113.013,80.7651 114.215,80.3731 115.658,80.6901 C116.333,80.8391 116.992,80.7831 117.658,80.5941 C119.397,80.1021 120.879,79.1651 122.207,77.9751 C122.506,77.7081 122.771,77.3391 122.904,76.9651 C123.18,76.1861 123.715,75.6551 124.324,75.1531 C125.164,74.4611 126.013,73.7741 126.808,73.0301 C128.031,71.8851 128.951,70.5041 129.817,69.0741 C130.947,67.2111 132.152,65.3911 133.324,63.5521 C133.727,62.9191 134.308,62.5261 134.969,62.1741 C136.018,61.6151 137.162,61.5831 138.285,61.4271 C138.526,61.3941 138.803,61.4801 139.039,61.5721 C140.661,62.2041 142.113,63.0841 143.171,64.5131 C143.326,64.7221 143.484,64.9291 143.652,65.1271 C144.963,66.6701 145.476,68.4471 145.373,70.4681 C145.261,72.6991 145.265,74.9351 145.224,77.1691 C145.176,79.7241 144.712,82.2301 144.337,84.7471 C144.07,86.5451 143.815,88.3441 143.574,90.1451 C143.527,90.4991 143.567,90.8631 143.567,91.3871 C143.879,91.2061 144.146,91.1381 144.263,90.9671 C144.643,90.4141 145.043,89.8551 145.299,89.2401 C145.896,87.8021 146.434,86.3401 146.954,84.8721 C147.443,83.4981 147.637,82.0701 147.789,80.6161 C147.979,78.7991 147.822,76.9811 147.972,75.1761 C148.243,71.9231 148.096,68.6351 148.756,65.4121 C148.849,64.9601 148.828,64.4821 148.83,64.0161 C148.847,61.1051 148.845,58.1941 148.87,55.2841 C148.878,54.2981 148.954,53.3131 148.989,52.3271 C148.997,52.0751 148.966,51.8221 148.949,51.4971 C148.183,51.5281 147.659,51.9821 147.074,52.2651 C146.466,52.5591 145.887,52.9131 145.273,53.1921 C144.707,53.4481 144.117,53.6541 143.528,53.8561 C142.89,54.0751 142.241,54.2571 141.6,54.4661 C140.967,54.6711 140.337,54.8891 139.791,55.0731 C139.309,54.7661 139.324,54.3961 139.315,54.0291 C139.264,51.9871 138.311,50.4841 136.581,49.4371 C136.323,49.2811 136.106,49.0581 135.876,48.8591 C135.849,48.8361 135.863,48.7671 135.847,48.6131 C136.174,48.4551 136.539,48.2891 136.893,48.1031 C137.717,47.6711 138.607,47.3241 139.343,46.7741 C141.771,44.9591 144.531,43.9701 147.443,43.3201 C148.099,43.1741 148.764,43.0671 149.466,42.9341 C149.532,42.7301 149.643,42.5421 149.647,42.3511 C149.701,39.7461 150.249,37.1981 150.552,34.6231 C151.009,30.7371 152.075,26.9921 153.181,23.2561 C154.876,17.5291 156.565,11.8001 158.514,6.1511 C159.049,4.6011 159.798,3.2051 160.993,2.0631 C161.872,1.2221 162.879,0.5991 164.039,0.2361 C165.668,-0.2739 167.109,0.0341 168.354,1.2291 C169.201,2.0431 169.834,2.9781 170.042,4.1481 C170.352,5.8861 170.659,7.6261 170.916,9.3731 C171.432,12.8681 171.931,16.3651 172.4,19.8671 C172.592,21.3081 172.71,22.7601 172.82,24.2101 C173.1,27.9491 173.734,31.6241 174.681,35.2511 C176.738,43.1301 178.385,51.1011 180.042,59.0701 C180.709,62.2771 181.72,65.3671 183.231,68.3141 C184.196,70.1961 184.852,72.2491 185.523,74.2661 C186.118,76.0551 186.791,77.7781 187.918,79.3071 C188.503,80.1011 189.011,80.9511 189.567,81.7681 C190.69,83.4211 192.036,84.8411 193.786,85.8521 C196.89,87.6451 199.907,89.5881 203.167,91.1061 C204.198,91.5851 205.187,92.1891 206.111,92.8541 C209.866,95.5541 213.596,98.2901 217.317,101.0381 C218.277,101.7471 219.159,102.5591 220.091,103.3081 C222.358,105.1321 224.596,106.9951 226.915,108.7511 C228.952,110.2941 230.845,111.9811 232.635,113.7991 C234.275,115.4651 235.937,117.1111 237.648,118.7031 C240.89,121.7181 243.909,124.9311 246.618,128.4361 C247.157,129.1341 247.755,129.7871 248.303,130.4791 C249.595,132.1111 250.724,133.8461 251.761,135.6561 C253.129,138.0451 254.675,140.3311 256.055,142.7121 C257.174,144.6431 258.314,146.5851 259.18,148.6331 C262.153,155.6671 265.065,162.7301 266.828,170.1941 C267.474,172.9251 268.125,175.6521 269.057,178.3041 C269.211,178.7441 269.331,179.2011 269.413,179.6601 C269.823,181.9601 270.221,184.2611 270.604,186.5661 C270.689,187.0761 270.735,187.5971 270.733,188.1141 C270.724,190.5021 270.845,192.8901 270.502,195.2721 C270.37,196.1921 270.436,197.1391 270.4,198.0741 C270.359,199.1091 270.292,200.1441 270.259,201.1801 C270.239,201.8011 270.187,202.4351 270.274,203.0461 C270.597,205.3361 270.352,207.5951 270.136,209.8791 C269.862,212.7811 269.257,215.6261 268.881,218.5081 C268.638,220.3721 268.066,222.1551 267.497,223.9381 C266.357,227.5151 265.684,231.1871 265.255,234.9111 C265.154,235.7871 265.071,236.6721 264.886,237.5321 C264.271,240.3911 264.014,243.2921 264.074,246.1991 C264.12,248.4611 263.438,250.3791 262.051,252.0951 C261.563,252.7001 261.082,253.3231 260.514,253.8461 C259.864,254.4471 258.993,254.1151 258.928,253.2391 C258.875,252.5241 258.943,251.7861 259.06,251.0751 C259.237,250.0011 259.546,248.9481 259.723,247.8741 C260.017,246.0831 260.274,244.2851 260.505,242.4851 C260.895,239.4451 261.226,236.4011 261.932,233.4071 C262.372,231.5401 262.681,229.6371 262.955,227.7371 C263.579,223.4201 264.147,219.0931 264.737,214.7711 C265.173,211.5661 265.155,208.3461 265.082,205.1231 C265.023,202.4751 264.83,199.8261 265.146,197.1791 C265.206,196.6671 265.194,196.1381 265.156,195.6221 C264.867,191.7371 264.897,187.8241 264.255,183.9731 C263.889,181.7731 263.368,179.5951 262.821,177.4311 C262.384,175.7101 261.495,174.1601 260.674,172.5971 C259.95,171.2171 259.181,169.8561 258.158,168.6671 C257.718,168.1551 257.27,167.6431 256.769,167.1961 C255.145,165.7441 253.264,165.4881 251.237,166.1321 C248.817,166.8991 247.194,168.6021 245.969,170.7401 C245.686,171.2331 245.467,171.7661 245.246,172.2931 C243.723,175.9361 242.174,179.5681 240.702,183.2321 C239.881,185.2751 238.762,187.1281 237.532,188.9391 C236.629,190.2691 235.723,191.6221 235.039,193.0691 C232.977,197.4431 230.1,201.2511 226.98,204.8831 C224.882,207.3241 222.667,209.6711 220.431,211.9881 C219.027,213.4441 217.513,214.8001 215.994,216.1401 C214.467,217.4891 212.674,218.4561 210.903,219.4421 C210.314,219.7711 209.695,220.0461 209.098,220.3631 C207.534,221.1931 205.937,221.2491 204.277,220.6641 C202.212,219.9361 200.228,219.0451 198.357,217.9051 C197.159,217.1751 195.99,216.3961 194.634,215.9671 C194.134,215.8091 193.647,215.6401 193.059,215.9761 C193.122,216.1961 193.122,216.4931 193.27,216.6451 C193.738,217.1281 194.223,217.6111 194.769,217.9981 C196.643,219.3221 198.365,220.8171 199.943,222.4801 C199.978,222.5181 200.015,222.5551 200.053,222.5911 C203.871,226.1361 207.227,230.1021 210.472,234.1641 C216.343,241.5131 222.19,248.8821 228.082,256.2151 C230.752,259.5381 233.378,262.8901 235.806,266.3971 C236.633,267.5911 237.538,268.7361 238.464,269.8571 C241.515,273.5491 244.248,277.4671 246.876,281.4651 C247.481,282.3851 247.907,283.3731 248.113,284.4681 C248.268,285.2901 248.127,286.0211 247.695,286.7031 C247.067,287.6941 246.259,288.4831 245.09,288.8101 C244.541,288.9651 243.993,289.1481 243.43,289.2251 C241.268,289.5221 239.107,289.8411 236.915,289.8181 C234.37,289.7911 231.818,289.9831 229.284,289.6431 C227.172,289.3591 225.076,288.9701 222.962,288.7011 C219.74,288.2911 216.692,287.2751 213.667,286.1521 C210.989,285.1581 208.298,284.1951 205.622,283.1941 C204.057,282.6091 202.45,282.1941 200.804,281.9441 C198.542,281.6001 196.498,280.7411 194.711,279.3411 C192.985,277.9871 191.163,276.8171 189.197,275.8411 C188.18,275.3361 187.243,274.6551 186.312,273.9961 C185.166,273.1861 184.065,272.3151 182.942,271.4741 C180.196,269.4201 177.459,267.3511 174.698,265.3181 C173.354,264.3291 172.066,263.2831 170.92,262.0711 C168.135,259.1251 165.368,256.1641 162.878,252.9541 C161.063,250.6141 159.186,248.3251 157.113,246.1991 C156.173,245.2351 155.317,244.1751 154.523,243.0871 C153.034,241.0441 151.298,239.3071 149.079,238.0451 C147.82,237.3271 146.638,236.4661 145.452,235.6251 C143.839,234.4801 142.17,233.4311 140.397,232.5551 C139.724,232.2221 139.178,231.7661 138.798,231.1211 C138.423,230.4861 138.378,229.8321 138.813,229.2151 C139.201,228.6631 139.623,228.1331 140.053,227.6141 C141.211,226.2111 142.384,224.8221 143.545,223.4221 C144.451,222.3291 145.12,221.1081 145.553,219.7531 C145.868,218.7621 146.232,217.7891 146.56,216.8021 C146.707,216.3591 146.84,215.9101 146.945,215.4551 C147.242,214.1491 146.998,212.9551 146.045,211.9921 C145.428,211.3681 144.766,210.7681 144.045,210.2701 C141.231,208.3281 138.168,206.9801 134.763,206.4331 C132.252,206.0301 129.762,205.5011 127.251,205.0931 C126.284,204.9361 125.286,204.9071 124.303,204.9161 C121.701,204.9391 119.117,204.8671 116.541,204.3971 C114.444,204.0141 112.404,204.3131 110.512,205.3901 C108.841,206.3411 107.132,207.2251 105.476,208.1991 C103.748,209.2161 101.906,209.8461 99.931,210.1621 C95.762,210.8271 91.731,212.0061 87.776,213.4711 C85.665,214.2531 83.736,215.3671 81.842,216.5571 C80.523,217.3871 79.212,218.2331 77.869,219.0241 C74.129,221.2261 70.193,222.9211 65.873,223.6411 C64.391,223.8881 62.945,224.3411 61.465,224.5981 C58.404,225.1301 55.592,224.4711 53.058,222.6601 C52.721,222.4181 52.393,222.1591 52.039,221.9431 C51.478,221.6021 50.857,221.7981 50.653,222.4141 C50.542,222.7471 50.475,223.1491 50.556,223.4801 C50.727,224.1791 50.924,224.8971 51.262,225.5251 C51.951,226.8071 52.807,227.9761 53.851,229.0121 C56.95,232.0891 60.187,235.0041 63.625,237.6981 C65.558,239.2131 67.641,240.4671 69.832,241.5611 C70.384,241.8371 70.946,242.1481 71.394,242.5611 C72.375,243.4661 72.425,244.3821 71.664,245.4701 C71.605,245.5551 71.542,245.6381 71.476,245.7181 C68.76,249.0141 65.873,252.1461 62.418,254.6881 C59.342,256.9511 55.982,258.7161 52.339,259.8671 C47.478,261.4031 42.504,262.5371 37.491,263.4081 C33.967,264.0201 30.375,264.3081 26.801,264.5491 C24.58,264.6991 22.336,264.4931 20.102,264.4451 C19.271,264.4271 18.44,264.4011 17.608,264.3871 C14.873,264.3421 12.253,263.7691 9.746,262.6771 C8.651,262.2001 7.556,261.7231 6.469,261.2291 C4.535,260.3491 2.98,258.9941 1.667,257.3431 C0.63,256.0401 0.05,254.5481 0.011,252.8921 C-0.025,251.3881 0.034,249.8801 0.113,248.3761 C0.181,247.0641 0.576,245.8271 1.16,244.6491 C2.105,242.7411 3.011,240.8121 3.993,238.9241 C6.424,234.2571 9.556,230.1611 13.812,226.9891 C15.479,225.7471 17.109,224.4561 18.776,223.2141 C21.361,221.2871 24.049,219.5231 26.858,217.9291 C30.113,216.0851 33.414,214.3311 36.709,212.5611 C38.581,211.5561 40.351,210.3581 42.154,209.2251 C43.825,208.1751 45.475,207.0921 47.138,206.0301 C48.067,205.4361 48.87,204.7171 49.541,203.8351 C50.307,202.8261 50.601,201.7171 50.426,200.4671 C50.224,199.0291 50.037,197.5891 49.848,196.1481 C49.379,192.5581 49.525,188.9951 50.339,185.4661 C50.899,183.0371 51.508,180.6191 52.042,178.1841 C52.471,176.2321 53.183,174.4031 54.271,172.7341 C56.856,168.7711 59.521,164.8721 62.823,161.4451 C67.441,156.6531 71.778,151.6091 76.121,146.5701 C78.427,143.8941 80.779,141.2491 83.254,138.7321 C85.73,136.2161 88.38,133.8681 90.967,131.4621 C93.136,129.4451 95.323,127.4461 97.507,125.4451 C97.988,125.0061 98.437,124.5161 99.063,124.1491 C99.262,125.5091 99.347,126.7431 99.639,127.9251 C99.925,129.0751 100.423,130.1711 100.828,131.2911 C100.359,131.6081 99.864,131.8931 99.426,132.2481 C97.934,133.4581 96.43,134.6581 94.989,135.9271 C91.949,138.6031 88.84,141.2061 86.112,144.2221 C84.788,145.6861 83.367,147.0611 82.022,148.5061 C80.889,149.7211 79.736,150.9271 78.707,152.2291 C76.415,155.1281 73.98,157.8921 71.335,160.4731 C69.918,161.8561 68.669,163.3831 67.525,164.9971 C65.692,167.5821 63.844,170.1561 62.046,172.7641 C61.37,173.7451 60.773,174.7861 60.222,175.8411 C59.939,176.3831 59.777,177.0081 59.667,177.6151 C59.532,178.3561 59.912,178.9231 60.521,179.3201 C61.148,179.7281 61.785,179.7551 62.404,179.2821 C62.61,179.1251 62.826,178.9781 63.02,178.8071 C64.229,177.7441 65.419,176.6581 66.643,175.6121 C68.854,173.7231 71.062,171.8411 73.635,170.4231 C74.763,169.8011 75.78,168.9651 76.801,168.1671 C80.244,165.4801 83.488,162.5591 86.748,159.6571 C89.784,156.9541 92.576,154.0331 94.916,150.6951 C95.631,149.6741 96.368,148.6621 97.181,147.7211 C99.709,144.7951 101.706,141.5131 103.642,138.1911 C104.239,137.1661 104.743,136.0881 105.291,135.0321 C104.482,134.3111 103.703,133.7441 102.792,133.3341 C101.99,132.9731 101.216,132.5111 101.092,131.4901 Z"/>
    <path d="M130.804 49.9211C131.498 49.0571 131.682 48.9891 133.063 49.0251 133.652 49.5571 134.224 50.0721 134.794 50.5881 136.087 51.7591 137.108 53.0881 137.36 54.8861 137.439 55.4481 137.54 56.0151 137.715 56.5521 138.008 57.4541 137.7 58.2871 137.515 59.1381 137.483 59.2861 137.421 59.4481 137.322 59.5571 136.746 60.1921 136.194 60.8661 135.187 61.1431 135.124 60.8081 135.03 60.5721 135.044 60.3441 135.184 58.0951 134.867 55.9051 134.172 53.7741 133.934 53.0441 133.589 52.3381 133.216 51.6651 132.804 50.9241 132.221 50.3491 131.319 50.1981 131.141 50.1691 130.984 50.0221 130.804 49.9211M90.6043 81.9246C91.0583 82.3766 91.1133 82.8456 91.1553 83.3066 91.2103 83.9116 91.4983 84.3356 91.9513 84.7476 93.5193 86.1746 95.0423 87.6506 96.5783 89.1126 97.3263 89.8256 97.2783 90.6306 96.9163 91.4466 96.3963 91.6216 96.1313 91.3296 95.8803 91.0936 94.7113 89.9946 93.5583 88.8806 92.4033 87.7666 92.1813 87.5516 92.0213 87.2296 91.7613 87.1026 91.0543 86.7566 90.8673 86.1946 90.8093 85.4666 90.7463 84.6666 90.8143 83.8216 90.2633 83.1146 90.1253 82.9376 90.2453 82.6816 90.6043 81.9246M91.5198 88.1052C91.6378 88.1702 91.7638 88.1952 91.8048 88.2682 92.9488 90.2832 94.6538 91.7882 96.3908 93.2492 97.0388 93.7932 97.4178 94.3672 97.3488 95.2282 97.2998 95.8432 97.3448 96.4672 97.2818 97.0812 97.2368 97.5282 96.7068 97.7172 96.3318 97.4502 96.1248 97.3022 95.9088 97.1372 95.7718 96.9302 95.3748 96.3292 94.9868 95.7172 94.6478 95.0822 93.9688 93.8092 93.3758 92.4882 92.6488 91.2452 92.1478 90.3872 91.7948 89.4852 91.4838 88.5562 91.4408 88.4292 91.5038 88.2672 91.5198 88.1052M107.6331 54.594C108.0441 54.638 108.4391 54.359 108.3891 54.056 108.3391 53.756 108.0951 53.69 107.8311 53.67 107.5491 53.649 107.3401 53.734 107.3011 54.046 107.2681 54.32 107.3481 54.533 107.6331 54.594M107.7471 52.405C108.4161 52.554 109.1971 52.621 109.8481 53.101 110.1161 53.298 110.2761 53.566 110.1851 53.902 110.0881 54.259 109.9011 54.667 109.4841 54.589 108.8141 54.463 108.4261 54.894 107.9541 55.181 107.3801 55.53 106.8501 55.665 106.2621 55.143 105.7451 54.684 105.1271 54.448 104.3981 54.719 104.1311 54.819 103.8631 54.651 103.8021 54.373 103.7641 54.202 103.8561 53.982 103.9431 53.812 104.0091 53.684 104.1451 53.561 104.2791 53.505 105.3711 53.044 106.4591 52.56 107.7471 52.405M97.1053 98.0193C97.9653 98.6973 97.4693 99.7393 97.9503 100.4733 98.2033 100.8573 96.9833 100.5863 97.6323 101.1303 97.6773 101.1673 97.5953 101.4943 97.5183 101.5193 96.6033 101.8133 95.9923 102.5033 95.3843 103.3473 94.8283 102.2543 94.3843 101.3443 94.2013 100.2503 94.9033 100.1133 95.5203 99.8823 95.8023 99.1433 95.7033 98.8973 95.5933 98.6243 95.4563 98.2843 96.0473 98.1893 96.5913 98.1023 97.1053 98.0193M119.0691 50.5671C119.1361 50.7041 119.2411 50.9201 119.3661 51.1751 118.6621 51.7021 117.8811 50.9211 117.2051 51.4641 117.2171 51.4501 117.1651 51.4831 117.1531 51.5261 117.0341 51.9541 117.1821 52.4781 116.6681 52.7581 116.1831 53.0241 115.6821 53.0251 115.1681 52.8931 114.9291 52.8321 114.6961 52.7481 114.4261 52.6641 114.2441 52.9821 114.1131 53.2591 113.9341 53.4991 113.8571 53.6021 113.6321 53.7131 113.5541 53.6711 113.3901 53.5851 113.1751 53.4071 113.1631 53.2541 113.0741 52.1081 114.2651 50.6851 115.4441 50.5111 115.7981 50.4591 116.1641 50.4641 116.5241 50.4731 117.3421 50.4931 118.1591 50.5321 119.0691 50.5671M92.5496 82.2527C94.7386 83.5087 96.5296 85.2227 98.8626 86.0307 98.4926 86.7217 98.2836 86.8297 97.8056 86.6127 97.6706 86.5517 97.5676 86.4197 97.4456 86.3267 97.3286 86.2387 97.2066 86.1597 97.0826 86.0747 96.6826 86.3997 96.3066 86.6227 95.8506 86.2087 94.8526 85.3007 93.8336 84.4157 92.8416 83.5017 92.5426 83.2267 92.2436 82.9057 92.5496 82.2527M110.0628 62.5491C110.1708 61.9631 110.5518 61.7761 111.0648 61.7601 112.4088 61.7201 113.7148 61.4281 115.0338 61.2071 115.7578 61.0861 116.4258 60.8941 117.0898 60.6011 117.3898 60.4681 117.7498 60.4721 118.4308 60.3531 118.0348 60.7131 117.9248 60.8761 117.7718 60.9401 116.9208 61.3021 116.0648 61.6571 115.1988 61.9831 114.4688 62.2571 113.7058 62.3311 112.9238 62.3461 112.0148 62.3631 111.1078 62.4701 110.0628 62.5491M92.9891 76.2668C92.2691 75.7608 92.2701 75.1338 92.1531 74.6338 91.9321 73.6998 92.4581 71.5548 93.1521 70.1478 93.0721 71.3058 92.9811 72.2358 92.9511 73.1688 92.9211 74.1338 93.2031 75.0968 92.9891 76.2668M115.8836 63.7405C114.5296 64.3375 114.2946 64.3845 113.6476 64.1845 114.5496 63.4045 115.4916 63.2175 115.8836 63.7405M93.4949 98.3679C93.2129 97.8289 92.9689 97.3649 92.7339 96.9169 92.8479 96.8249 92.9009 96.7629 92.9169 96.7709 93.2309 96.9359 93.5409 97.1089 93.9169 97.3169 93.8789 97.5159 93.8639 97.7099 93.8019 97.8869 93.7529 98.0239 93.6439 98.1389 93.4949 98.3679M113.5652 59.1916C114.1512 58.3516 114.1512 58.3516 114.7242 58.6096 114.2762 59.1226 114.2762 59.1226 113.5652 59.1916M118.7068 52.2971C118.5078 52.4911 118.3258 52.7071 118.1028 52.8661 118.0148 52.9291 117.7798 52.9181 117.7088 52.8451 117.5168 52.6501 117.6718 52.4781 117.8488 52.3711 118.0508 52.2481 118.2728 52.1581 118.4868 52.0541 118.5598 52.1351 118.6328 52.2161 118.7068 52.2971M115.5428 58.3625C115.5308 58.2795 115.5198 58.1975 115.5078 58.1145 115.5848 58.1115 115.6628 58.1045 115.7388 58.1095 115.7448 58.1105 115.7658 58.2125 115.7458 58.2315 115.6878 58.2845 115.6118 58.3205 115.5428 58.3625M91.5921 94.8059C91.5791 94.7669 91.5591 94.7279 91.5571 94.6879 91.5571 94.6779 91.6131 94.6649 91.6441 94.6539 91.6551 94.6929 91.6751 94.7319 91.6731 94.7699 91.6721 94.7829 91.6201 94.7939 91.5921 94.8059M167.1214 43.6619C167.3304 43.0279 167.7224 43.0589 168.1164 43.1409 168.1774 43.1539 168.2474 43.3029 168.2434 43.3859 168.2404 43.4589 168.1494 43.5829 168.0854 43.5919 167.7964 43.6319 167.5034 43.6379 167.1214 43.6619"/>
  </g>
</svg>
